<svg width="1440" height="618" viewBox="0 0 1440 618" fill="none" xmlns="http://www.w3.org/2000/svg">
<path d="M1338.3 541.266C1236.54 558.527 1137.86 576.811 1043.2 595.952C1125.66 581.926 1202.79 576.359 1269.97 582.838C1312.22 575.438 1355.03 568.211 1398.4 561.157C1379.11 552.474 1358.96 545.808 1338.3 541.266Z" fill="#1242B0"/>
<path d="M1432.8 465.685C1394.33 471.956 1356.22 478.38 1318.46 484.959C1343.1 488.208 1367.31 494.108 1390.69 502.558C1416.35 498.29 1442.19 494.099 1468.21 489.984C1457.3 480.655 1445.43 472.509 1432.8 465.685Z" fill="#1242B0"/>
<path d="M1390.7 502.593C1336.71 511.531 1283.59 520.755 1231.32 530.266C1269.83 530.466 1305.74 533.913 1338.3 541.269C1370.75 535.763 1403.5 530.366 1436.54 525.076C1422.1 515.985 1406.73 508.449 1390.7 502.593Z" fill="#1242B0"/>
<path d="M1467.1 430.059C1437.81 434.78 1408.73 439.587 1379.85 444.478C1398.23 449.581 1415.98 456.692 1432.8 465.68C1453.38 462.321 1474.06 459.01 1494.86 455.745C1486.52 446.244 1477.22 437.635 1467.1 430.059Z" fill="#1242B0"/>
<path d="M1495.76 395.341C1472.75 399.018 1449.86 402.75 1427.11 406.535C1441.27 412.868 1454.69 420.759 1467.1 430.061C1483.79 427.368 1500.54 424.708 1517.34 422.083C1511.04 412.484 1503.81 403.527 1495.76 395.341Z" fill="#1242B0"/>
<path d="M192.513 1783.29C183.197 1775.51 180.333 1766.59 185.108 1755.97C175.088 1748.47 172.214 1739.6 177.809 1728.73C166.971 1721.54 164.044 1712.73 170.6 1701.53C158.853 1694.7 155.915 1685.95 163.535 1674.39C150.694 1667.96 147.666 1659.27 156.566 1647.24C142.57 1641.29 139.513 1632.7 149.783 1620.13C134.408 1614.72 131.174 1606.28 143.106 1593C126.221 1588.27 122.949 1579.83 136.653 1565.89C117.927 1561.86 114.469 1553.59 130.416 1538.72C109.643 1535.54 105.985 1527.44 124.436 1511.49C101.308 1509.33 97.4586 1501.42 118.776 1484.17C92.8641 1483.22 88.6897 1475.51 113.43 1456.76C84.296 1457.2 79.8268 1449.76 108.559 1429.13C75.7333 1431.25 70.7776 1424.16 104.21 1401.32C67.0241 1405.41 61.4606 1398.79 100.423 1373.26C58.0833 1379.71 51.7875 1373.65 97.4021 1344.81C49.1246 1354.05 41.778 1348.77 95.1943 1316C39.7857 1328.6 31.2875 1324.23 94.0743 1286.62C30.5179 1303.15 20.2885 1300.06 94.17 1256.6C20.9258 1277.87 8.59333 1276.39 95.7046 1225.81C11.113 1252.67 -3.92668 1253.28 98.9056 1194.09C1.11746 1227.56 -17.4739 1230.89 104.005 1161.28C-9.05924 1202.48 -32.2422 1209.37 111.163 1127.23C-19.209 1177.36 -48.302 1188.79 120.577 1091.82C-29.3844 1152.15 -65.7867 1169.27 132.323 1054.92C-39.4822 1126.77 -85.0368 1151.06 146.359 1016.54C-43.4714 1098.64 -102.431 1132.19 139.318 990.246C148.659 984.803 158.481 979.331 168.785 973.83C-44.2077 1068.45 -122.244 1114.78 130.074 965.217C333.086 844.823 769.254 727.542 1294.41 638.126C1256.77 631.402 1215.39 629.065 1171.32 630.321C1230.31 619.419 1290.56 608.893 1352.07 598.742C1325.31 590.701 1297.8 585.373 1269.97 582.841C993.325 631.347 741.844 687.435 536.508 747.448C662.359 698.213 795.761 652.495 922.325 621.331C746.911 659.607 588.235 700.783 453.195 743.636C539.203 707.027 630.38 670.821 721.797 638.967C596.828 670.372 483.407 703.208 384.808 736.916C459.674 702.809 539.715 668.225 621.442 635.955C511.41 665.877 411.989 696.882 325.758 728.53C394.908 695.222 469.611 660.791 546.763 627.659C444.248 657.361 352.265 687.922 273.16 719.092C338.878 685.882 410.672 650.932 485.64 616.562C386.975 646.76 299.257 677.779 224.789 709.217C288.494 675.599 359.053 639.605 433.522 603.649C335.965 635.023 250.235 667.171 178.821 699.677C241.64 665.176 312.426 627.496 387.985 589.275C288.197 622.859 202.009 657.227 132.31 691.915C195.405 655.851 268.453 615.541 347.413 573.88C233.827 613.754 139.392 654.608 68.838 695.613C136.006 655.627 218.81 607.776 310.775 557.556C192.417 600.784 96.5325 645.037 29.0375 689.264C-266.95 883.253 -65.6412 734.033 277.416 540.464C170.056 581.163 82.6298 622.657 19.9151 664.132C-267.533 854.214 -82.1795 714.035 246.854 522.687C149.184 561.042 69.225 600.052 10.8526 638.969C-268.748 825.412 -97.4709 693.362 218.532 504.347C129.477 540.531 56.1511 577.214 1.7395 613.82C-270.538 796.996 -111.861 672.194 192.162 485.539C110.798 519.682 43.4013 554.214 -7.38996 588.662C-272.863 768.817 -125.347 650.546 167.507 466.25C93.0473 498.482 30.9426 531.033 -16.4816 563.494C-275.62 740.859 -138.136 628.504 144.414 446.523C76.0519 476.995 18.7863 507.71 -25.573 538.325C-278.781 713.113 -150.322 606.124 122.666 426.409C59.8187 455.248 6.87774 484.248 -34.6519 513.153C-282.314 685.557 -161.975 583.453 102.13 405.931C44.2354 433.23 -4.81178 460.639 -43.7344 487.968C-286.176 658.193 -173.182 560.515 82.6774 385.113C29.2422 410.973 -16.3348 436.941 -52.8167 462.783C-290.382 630.968 -184.017 537.347 64.2114 363.955C14.7468 388.491 -27.5721 413.092 -61.9121 437.602C-294.852 603.875 -194.554 514.023 46.5946 342.551C0.792736 365.838 -38.6374 389.125 -70.9057 412.391C-299.491 576.913 -204.688 490.474 29.7835 320.847C-12.756 342.972 -49.5469 365.127 -79.9664 387.186C-304.478 550.121 -214.595 466.763 13.796 298.809C-25.8522 319.866 -60.2957 340.972 -89.011 361.99C-309.636 523.405 -224.313 442.942 -1.64657 276.613C-38.6244 296.693 -70.9341 316.772 -98.0464 336.778C-315.058 496.916 -233.795 418.944 -16.3089 254.028C-50.9841 273.237 -81.3625 292.442 -107.082 311.566C-320.661 470.37 -243.14 394.892 -30.5711 231.354C-63.0866 249.72 -91.7348 268.069 -116.121 286.341C-326.468 444.019 -252.284 370.686 -44.1384 208.329C-72.2061 224.235 -99.2598 241.868 -125.144 261.125C-332.455 417.762 -261.29 346.385 -57.2551 185.105C-83.893 200.474 -109.577 217.439 -134.166 235.909C-338.595 391.591 -270.171 321.993 -69.9298 161.698C-95.2864 176.573 -119.745 192.928 -143.18 210.677C-344.92 365.541 -278.927 297.511 -82.0962 138.008C-106.338 152.47 -129.734 168.305 -152.169 185.437C-351.386 339.573 -287.571 272.941 -93.7849 114.069C-117.097 128.169 -139.593 143.575 -161.166 160.214C-357.984 313.671 -296.13 248.332 -105.262 90.0563C-129.477 105.066 -196.553 -13.0401 -215.55 1.87715L-615.247 130.766L-193.123 1905.18C-193.123 1905.18 188.02 1794.88 192.513 1783.29Z" fill="#1242B0"/>
<path d="M371.757 887.557C585.806 811.777 881.849 740.519 1219.24 680.768C980.064 665.948 637.387 780.3 371.757 887.557Z" fill="#1242B0"/>
</svg>
