<svg width="12" height="12" viewBox="0 0 12 12" fill="none" xmlns="http://www.w3.org/2000/svg">
<path fill-rule="evenodd" clip-rule="evenodd" d="M0.5 2C0.5 1.17157 1.17157 0.5 2 0.5H10C10.8284 0.5 11.5 1.17157 11.5 2V2.80801C11.5 3.20583 11.342 3.58736 11.0607 3.86867L7.75756 7.17177C7.66379 7.26554 7.61111 7.39272 7.61111 7.52532V8.77778C7.61111 8.91039 7.55843 9.03756 7.46466 9.13133L5.24244 11.3536C5.09944 11.4966 4.88438 11.5393 4.69755 11.4619C4.51071 11.3845 4.38889 11.2022 4.38889 11V7.52533C4.38889 7.39272 4.33621 7.26554 4.24244 7.17177L0.93934 3.86867C0.658035 3.58736 0.5 3.20583 0.5 2.80801V2ZM2 1.5C1.72386 1.5 1.5 1.72386 1.5 2V2.80801C1.5 2.94062 1.55268 3.06779 1.64645 3.16156L4.94955 6.46466C5.23085 6.74597 5.38889 7.1275 5.38889 7.52533V9.79289L6.61111 8.57067V7.52532C6.61111 7.1275 6.76915 6.74597 7.05045 6.46466L10.3536 3.16156C10.4473 3.06779 10.5 2.94062 10.5 2.80801V2C10.5 1.72386 10.2761 1.5 10 1.5H2Z" fill="#1242B0"/>
</svg>
