<svg width="40" height="41" viewBox="0 0 40 41" fill="none" xmlns="http://www.w3.org/2000/svg">
<path fill-rule="evenodd" clip-rule="evenodd" d="M20 39.5C30.4934 39.5 39 30.9934 39 20.5C39 10.0066 30.4934 1.5 20 1.5C9.50659 1.5 1 10.0066 1 20.5C1 30.9934 9.50659 39.5 20 39.5ZM20 40.5C31.0457 40.5 40 31.5457 40 20.5C40 9.4543 31.0457 0.5 20 0.5C8.9543 0.5 0 9.4543 0 20.5C0 31.5457 8.9543 40.5 20 40.5ZM14.4989 28.5331C14.4989 28.5329 14.4989 28.5328 14 28.4995C13.5011 28.4663 13.5011 28.4661 13.5011 28.4658L13.5012 28.4652L13.5013 28.4635L13.5017 28.4579L13.5031 28.4389C13.5044 28.4227 13.5063 28.3995 13.509 28.3699C13.5144 28.3107 13.5229 28.2256 13.5357 28.1182C13.5613 27.9035 13.6039 27.5992 13.6728 27.2349C13.8099 26.5087 14.0532 25.5329 14.4787 24.5509C15.3262 22.5954 16.9591 20.5 20 20.5C22.8019 20.5 24.4292 22.6122 25.3281 24.5383C25.7837 25.5147 26.0745 26.4856 26.2513 27.209C26.34 27.5717 26.4006 27.8747 26.4393 28.0882C26.4586 28.1951 26.4725 28.2797 26.4816 28.3384L26.4862 28.3683L26.4919 28.4067L26.4945 28.4254L26.4953 28.4308L26.4955 28.4325L26.4956 28.433C26.4956 28.4332 26.4956 28.4334 26 28.4995C25.5044 28.5656 25.5044 28.5657 25.5044 28.5658L25.5044 28.5655L25.504 28.5627L25.5021 28.5493L25.4986 28.5253L25.4935 28.4922C25.4855 28.441 25.473 28.3645 25.4553 28.2663C25.4197 28.0698 25.3631 27.7868 25.2799 27.4465C25.113 26.7637 24.8413 25.8597 24.4219 24.9612C23.5708 23.1375 22.1981 21.5 20 21.5C17.5409 21.5 16.1738 23.1543 15.3963 24.9486C15.0093 25.8415 14.7838 26.7406 14.6554 27.4205C14.5914 27.7594 14.552 28.0409 14.5287 28.2364C14.5171 28.334 14.5095 28.41 14.5049 28.4607C14.5026 28.486 14.501 28.505 14.5001 28.5171L14.4991 28.5302L14.4989 28.5328L14.4989 28.5331ZM22.5 15C22.5 16.3807 21.3807 17.5 20 17.5C18.6193 17.5 17.5 16.3807 17.5 15C17.5 13.6193 18.6193 12.5 20 12.5C21.3807 12.5 22.5 13.6193 22.5 15ZM23.5 15C23.5 16.933 21.933 18.5 20 18.5C18.067 18.5 16.5 16.933 16.5 15C16.5 13.067 18.067 11.5 20 11.5C21.933 11.5 23.5 13.067 23.5 15Z" fill="#1242B0"/>
</svg>
