<svg width="18" height="18" viewBox="0 0 18 18" fill="none" xmlns="http://www.w3.org/2000/svg">
<path d="M8.03488 7.22514V7.22558H9.00001C9.15264 7.2256 9.28603 7.35899 9.28605 7.51163V12.0628H9.92966H9.93023V12.1628C10.0285 12.1614 10.1189 12.2505 10.1189 12.3488C10.1189 12.4471 10.0285 12.5363 9.93023 12.5349L8.03488 7.22514ZM8.03488 7.22514L8.02555 7.22602C7.87315 7.24031 7.75243 7.386 7.76672 7.5384C7.78084 7.68907 7.92339 7.80877 8.07389 7.79767H8.71395V12.0628H8.03488V12.0624L8.02555 12.0632C7.87315 12.0775 7.75243 12.2232 7.76672 12.3756C7.78084 12.5263 7.92339 12.646 8.07388 12.6349H9.92965L8.03488 7.22514ZM9 0.900002C4.5287 0.900002 0.9 4.5287 0.9 9C0.9 13.4713 4.5287 17.1 9 17.1C13.4713 17.1 17.1 13.4713 17.1 9C17.1 4.5287 13.4713 0.900002 9 0.900002ZM9 1.47209C13.1598 1.47209 16.5279 4.84026 16.5279 9C16.5279 13.1598 13.1598 16.5279 9 16.5279C4.84025 16.5279 1.47209 13.1598 1.47209 9C1.47209 4.84026 4.84025 1.47209 9 1.47209ZM9 5.36512C8.73927 5.36512 8.52791 5.57648 8.52791 5.83721C8.52791 6.09794 8.73927 6.3093 9 6.3093C9.26073 6.3093 9.47209 6.09794 9.47209 5.83721C9.47209 5.57648 9.26073 5.36512 9 5.36512Z" fill="#1242B0"/>
<path fill-rule="evenodd" clip-rule="evenodd" d="M0.799999 9C0.799999 4.47348 4.47347 0.800003 9 0.800003C13.5265 0.800003 17.2 4.47348 17.2 9C17.2 13.5265 13.5265 17.2 9 17.2C4.47347 17.2 0.799999 13.5265 0.799999 9ZM9 1C4.58393 1 0.999999 4.58393 0.999999 9C0.999999 13.4161 4.58393 17 9 17C13.4161 17 17 13.4161 17 9C17 4.58393 13.4161 1 9 1ZM9 1.57209C4.89548 1.57209 1.57209 4.89549 1.57209 9C1.57209 13.1046 4.89548 16.4279 9 16.4279C13.1046 16.4279 16.4279 13.1046 16.4279 9C16.4279 4.89549 13.1046 1.57209 9 1.57209ZM1.37209 9C1.37209 4.78504 4.78502 1.37209 9 1.37209C13.215 1.37209 16.6279 4.78504 16.6279 9C16.6279 13.215 13.215 16.6279 9 16.6279C4.78502 16.6279 1.37209 13.215 1.37209 9ZM8.42791 5.83721C8.42791 5.52125 8.68404 5.26512 9 5.26512C9.31596 5.26512 9.57209 5.52125 9.57209 5.83721C9.57209 6.15317 9.31596 6.4093 9 6.4093C8.68404 6.4093 8.42791 6.15317 8.42791 5.83721ZM9 5.46512C8.7945 5.46512 8.62791 5.63171 8.62791 5.83721C8.62791 6.04271 8.7945 6.2093 9 6.2093C9.2055 6.2093 9.37209 6.04271 9.37209 5.83721C9.37209 5.63171 9.2055 5.46512 9 5.46512ZM8.10339 7.11824L8.10596 7.12558H9.00002C9.20787 7.12561 9.38602 7.30376 9.38605 7.51163V10.7129L9.8322 11.9628H10.0302V12.0813C10.1379 12.123 10.2189 12.2299 10.2189 12.3488C10.2189 12.468 10.1375 12.5753 10.0293 12.6168L10.0706 12.7349H8.07727C7.87428 12.7477 7.68626 12.5888 7.66716 12.3849C7.64771 12.1776 7.80883 11.9831 8.01621 11.9636L8.13488 11.9535V11.9628H8.61395V9.18096L8.16448 7.89767H8.07728C7.87429 7.91042 7.68626 7.7516 7.66716 7.54773C7.66716 7.54773 7.66716 7.54774 7.66716 7.54773C7.64771 7.34036 7.8088 7.14594 8.01616 7.12646C8.01618 7.12646 8.01614 7.12647 8.01616 7.12646L8.10339 7.11824ZM8.81395 9.75198V12.1628H8.03488C7.93764 12.1722 7.85716 12.269 7.86628 12.3663C7.87529 12.4625 7.97005 12.5423 8.06652 12.5352L8.07388 12.5346L9.78867 12.5349L9.65834 12.1628H9.18605V10.8144L8.81395 9.75198ZM9.38605 11.3854V11.9628H9.58829L9.38605 11.3854ZM9.99115 12.4081C10.0077 12.3918 10.0189 12.3701 10.0189 12.3488C10.0189 12.3089 9.97942 12.2675 9.93941 12.2632L9.99115 12.4081ZM8.81395 9.11022L9.18605 10.1526V7.51165C9.18604 7.41422 9.09741 7.3256 9.00001 7.32558H8.17691L8.30973 7.69767H8.81395V9.11022ZM8.61395 8.54993L8.38112 7.89767H8.61395V8.54993ZM7.97089 7.34496C7.90508 7.37962 7.85926 7.4542 7.86628 7.52907C7.87529 7.62522 7.97004 7.70506 8.06653 7.69794L8.07389 7.6974L8.09443 7.69767L7.97089 7.34496Z" fill="#1242B0"/>
</svg>
