<svg width="16" height="16" viewBox="0 0 16 16" fill="none" xmlns="http://www.w3.org/2000/svg">
<path fill-rule="evenodd" clip-rule="evenodd" d="M1.5 12.375C1.5 13.5486 2.45139 14.5 3.625 14.5L12.375 14.5C13.5486 14.5 14.5 13.5486 14.5 12.375L14.5 11.5C14.5 11.2239 14.7239 11 15 11C15.2761 11 15.5 11.2239 15.5 11.5L15.5 12.375C15.5 14.1009 14.1009 15.5 12.375 15.5L3.625 15.5C1.89911 15.5 0.5 14.1009 0.5 12.375L0.5 11.5C0.5 11.2239 0.723857 11 1 11C1.27614 11 1.5 11.2239 1.5 11.5L1.5 12.375ZM4.14645 7.64645C4.34171 7.45118 4.65829 7.45118 4.85355 7.64645L7.5 10.2929L7.5 1C7.5 0.723859 7.72386 0.500001 8 0.500001C8.27614 0.500001 8.5 0.723858 8.5 1L8.5 10.2929L11.1464 7.64645C11.3417 7.45118 11.6583 7.45118 11.8536 7.64645C12.0488 7.84171 12.0488 8.15829 11.8536 8.35355L8.35355 11.8536C8.15829 12.0488 7.84171 12.0488 7.64645 11.8536L4.14645 8.35355C3.95118 8.15829 3.95118 7.84171 4.14645 7.64645Z" fill="#1242B0"/>
</svg>
