<svg width="49" height="50" viewBox="0 0 49 50" fill="none" xmlns="http://www.w3.org/2000/svg">
<path fill-rule="evenodd" clip-rule="evenodd" d="M0.300003 25C0.300003 11.6414 11.1413 0.799999 24.5 0.799999C37.8587 0.799999 48.7 11.6414 48.7 25C48.7 38.3587 37.8587 49.2 24.5 49.2C11.1413 49.2 0.300003 38.3587 0.300003 25ZM24.5 2.31628C11.9655 2.31628 1.81628 12.4655 1.81628 25C1.81628 37.5346 11.9655 47.6837 24.5 47.6837C37.0345 47.6837 47.1837 37.5346 47.1837 25C47.1837 12.4655 37.0345 2.31628 24.5 2.31628ZM32.2071 20.7071C32.5976 20.3166 32.5976 19.6834 32.2071 19.2929C31.8166 18.9024 31.1834 18.9024 30.7929 19.2929L21.5 28.5858L18.2071 25.2929C17.8166 24.9024 17.1834 24.9024 16.7929 25.2929C16.4024 25.6834 16.4024 26.3166 16.7929 26.7071L20.7929 30.7071C21.1834 31.0976 21.8166 31.0976 22.2071 30.7071L32.2071 20.7071Z" fill="#1242B0"/>
</svg>
