<svg width="16" height="16" viewBox="0 0 16 16" fill="none" xmlns="http://www.w3.org/2000/svg">
<g clip-path="url(#clip0_4_13)">
<path fill-rule="evenodd" clip-rule="evenodd" d="M4.88889 -0.5C5.16503 -0.5 5.38889 -0.276142 5.38889 0V1.05556H10.6111V0C10.6111 -0.276142 10.835 -0.5 11.1111 -0.5C11.3873 -0.5 11.6111 -0.276142 11.6111 0V1.05556H13.4444C14.5797 1.05556 15.5 1.97586 15.5 3.11111V12.4444C15.5 13.5797 14.5797 14.5 13.4444 14.5H2.55556C1.4203 14.5 0.5 13.5797 0.5 12.4444V3.11111C0.5 1.97586 1.4203 1.05556 2.55556 1.05556H4.38889V0C4.38889 -0.276142 4.61275 -0.5 4.88889 -0.5ZM4.38889 2.05556H2.55556C1.97259 2.05556 1.5 2.52814 1.5 3.11111V12.4444C1.5 13.0274 1.97259 13.5 2.55556 13.5H13.4444C14.0274 13.5 14.5 13.0274 14.5 12.4444V3.11111C14.5 2.52814 14.0274 2.05556 13.4444 2.05556H11.6111V3.11111C11.6111 3.38725 11.3873 3.61111 11.1111 3.61111C10.835 3.61111 10.6111 3.38725 10.6111 3.11111V2.05556H5.38889V3.11111C5.38889 3.38725 5.16503 3.61111 4.88889 3.61111C4.61275 3.61111 4.38889 3.38725 4.38889 3.11111V2.05556ZM3.61111 6.22222C3.61111 5.94608 3.83497 5.72222 4.11111 5.72222H11.8889C12.165 5.72222 12.3889 5.94608 12.3889 6.22222C12.3889 6.49836 12.165 6.72222 11.8889 6.72222H4.11111C3.83497 6.72222 3.61111 6.49836 3.61111 6.22222Z" fill="#1242B0"/>
</g>
<defs>
<clipPath id="clip0_4_13">
<rect width="16" height="16" fill="white"/>
</clipPath>
</defs>
</svg>
