<svg width="12" height="13" viewBox="0 0 12 13" fill="none" xmlns="http://www.w3.org/2000/svg">
<path fill-rule="evenodd" clip-rule="evenodd" d="M2.14301 2.17583C1.89647 2.42849 1.75 2.79056 1.75 3.21875V9.78125C1.75 10.2095 1.89647 10.5715 2.14301 10.8242C2.36149 11.0481 2.68474 11.2129 3.125 11.2445V1.75549C2.68474 1.78707 2.36149 1.95193 2.14301 2.17583ZM1.4273 1.47743C1.87905 1.01449 2.52092 0.75 3.28125 0.75H3.625C3.90114 0.75 4.125 0.973858 4.125 1.25V6H9.41789L7.64645 4.22855C7.45118 4.03329 7.45118 3.71671 7.64645 3.52145C7.84171 3.32618 8.15829 3.32618 8.35355 3.52145L10.9786 6.14645C11.1738 6.34171 11.1738 6.65829 10.9786 6.85355L8.35355 9.47855C8.15829 9.67382 7.84171 9.67382 7.64645 9.47855C7.45118 9.28329 7.45118 8.96671 7.64645 8.77145L9.41789 7H4.125V11.75C4.125 12.0261 3.90114 12.25 3.625 12.25H3.28125C2.52092 12.25 1.87906 11.9855 1.4273 11.5226C0.97853 11.0627 0.75 10.4404 0.75 9.78125V3.21875C0.75 2.55963 0.978532 1.93733 1.4273 1.47743Z" fill="#1242B0"/>
</svg>
