<svg width="16" height="16" viewBox="0 0 16 16" fill="none" xmlns="http://www.w3.org/2000/svg">
<path fill-rule="evenodd" clip-rule="evenodd" d="M6.44444 1.49902C3.7137 1.49902 1.5 3.71273 1.5 6.44347C1.5 9.17421 3.7137 11.3879 6.44444 11.3879C9.17519 11.3879 11.3889 9.17421 11.3889 6.44347C11.3889 3.71273 9.17519 1.49902 6.44444 1.49902ZM0.5 6.44347C0.5 3.16044 3.16142 0.499023 6.44444 0.499023C9.72747 0.499023 12.3889 3.16044 12.3889 6.44347C12.3889 7.90498 11.8615 9.24329 10.9866 10.2785L15.3536 14.6455C15.5488 14.8407 15.5488 15.1573 15.3536 15.3526C15.1583 15.5478 14.8417 15.5478 14.6464 15.3526L10.2794 10.9856C9.24427 11.8605 7.90595 12.3879 6.44444 12.3879C3.16142 12.3879 0.5 9.72649 0.5 6.44347Z" fill="#1242B0"/>
</svg>
