<svg width="12" height="12" viewBox="0 0 12 12" fill="none" xmlns="http://www.w3.org/2000/svg">
<path fill-rule="evenodd" clip-rule="evenodd" d="M1 0.5C1.27614 0.5 1.5 0.723858 1.5 1V2.83711C2.49505 1.42395 4.13924 0.5 6 0.5C8.80511 0.5 11.1191 2.59953 11.4575 5.31313C11.4916 5.58715 11.2972 5.83699 11.0232 5.87116C10.7492 5.90533 10.4993 5.71089 10.4652 5.43687C10.1884 3.21758 8.29441 1.5 6 1.5C4.38709 1.5 2.97153 2.34867 2.17692 3.625H4.125C4.40114 3.625 4.625 3.84886 4.625 4.125C4.625 4.40114 4.40114 4.625 4.125 4.625H1C0.723858 4.625 0.5 4.40114 0.5 4.125V1C0.5 0.723858 0.723858 0.5 1 0.5ZM0.976814 6.12884C1.25083 6.09467 1.50067 6.28911 1.53484 6.56313C1.81158 8.78242 3.70559 10.5 6 10.5C7.61291 10.5 9.02847 9.65133 9.82308 8.375H7.875C7.59886 8.375 7.375 8.15114 7.375 7.875C7.375 7.59886 7.59886 7.375 7.875 7.375H11C11.2761 7.375 11.5 7.59886 11.5 7.875V11C11.5 11.2761 11.2761 11.5 11 11.5C10.7239 11.5 10.5 11.2761 10.5 11V9.16289C9.50495 10.5761 7.86076 11.5 6 11.5C3.19489 11.5 0.880908 9.40047 0.542526 6.68687C0.508357 6.41285 0.702794 6.16301 0.976814 6.12884Z" fill="#1242B0"/>
</svg>
