<svg width="40" height="41" viewBox="0 0 40 41" fill="none" xmlns="http://www.w3.org/2000/svg">
<path fill-rule="evenodd" clip-rule="evenodd" d="M39 20.5C39 30.9934 30.4934 39.5 20 39.5C9.50659 39.5 1 30.9934 1 20.5C1 10.0066 9.50659 1.5 20 1.5C30.4934 1.5 39 10.0066 39 20.5ZM40 20.5C40 31.5457 31.0457 40.5 20 40.5C8.9543 40.5 0 31.5457 0 20.5C0 9.4543 8.9543 0.5 20 0.5C31.0457 0.5 40 9.4543 40 20.5ZM12.1282 16.4008C12.007 16.6382 11.8859 16.8756 11.7592 17.1092C11.7574 17.1113 11.7557 17.1134 11.7539 17.1156C11.7413 17.1308 11.7276 17.1473 11.7084 17.1533C11.6912 17.1586 11.6732 17.1579 11.6553 17.1573C11.6486 17.157 11.6419 17.1568 11.6352 17.1569C10.2679 17.1726 9.23523 18.2167 9.23235 19.5886C9.23059 20.4344 9.22899 21.2802 9.23283 22.1259C9.23865 23.399 10.3098 24.4686 11.5837 24.4739C12.2123 24.4765 12.8409 24.4758 13.4695 24.4751C13.6772 24.4748 13.8849 24.4746 14.0926 24.4745C14.4709 24.4743 14.5158 24.4281 14.5158 24.0398C14.516 21.903 14.5159 19.7661 14.5159 17.6294C14.5159 17.1875 14.4856 17.1569 14.0497 17.1568C13.7117 17.1566 13.3737 17.1566 13.0318 17.1567C12.8843 17.1567 12.736 17.1567 12.5868 17.1567C13.4639 14.4601 16.3266 11.6274 20.2856 11.9834C21.7584 12.1159 23.0659 12.6865 24.2053 13.6291C25.3418 14.5693 26.1511 15.7383 26.669 17.1568C26.4999 17.1568 26.3356 17.1572 26.1748 17.1576C25.7925 17.1587 25.4296 17.1597 25.0668 17.1545C24.8194 17.1509 24.7121 17.2518 24.7126 17.5033C24.7163 19.7113 24.7164 21.9193 24.7125 24.1274C24.7121 24.3784 24.8171 24.4835 25.0655 24.4766C25.2777 24.4706 25.4901 24.472 25.7055 24.4733C25.7991 24.4739 25.8933 24.4745 25.9882 24.4745C25.9831 24.4964 25.98 24.5125 25.9775 24.5249C25.9737 24.5446 25.9717 24.5549 25.9668 24.5637C25.9455 24.6026 25.9221 24.6405 25.8978 24.6776C24.4733 26.8512 22.5165 28.1335 19.8798 28.2779C19.6469 28.2906 19.4639 28.4688 19.5135 28.6963C19.56 28.9094 19.7732 28.9832 20.0168 28.9567C20.1073 28.9468 20.1981 28.938 20.289 28.9291C20.5611 28.9027 20.8335 28.8763 21.0999 28.8215C23.3893 28.3514 25.1576 27.0963 26.3902 25.1335C26.72 24.6082 27.0422 24.4379 27.6391 24.4587C28.9259 24.5035 29.9938 23.3995 29.9981 22.1077C30.0005 21.3939 29.9997 20.6801 29.9989 19.9663C29.9988 19.8432 29.9987 19.7201 29.9985 19.597C29.9972 18.2228 28.9731 17.1764 27.6039 17.1611C27.4442 17.1593 27.3763 17.1094 27.3232 16.9614C26.7732 15.4296 25.8927 14.1222 24.6254 13.0949C22.7368 11.5641 20.5795 10.9713 18.1886 11.4108C15.9744 11.8179 14.2395 13.0225 12.9845 14.8785C12.6595 15.3592 12.3938 15.88 12.1282 16.4008ZM13.7656 17.8435C13.7819 17.8459 13.8006 17.8486 13.8227 17.8512V23.7702C13.8086 23.7735 13.7955 23.7771 13.7831 23.7806C13.7586 23.7876 13.7368 23.7938 13.715 23.7938C13.5057 23.7938 13.2964 23.7951 13.087 23.7963C12.5673 23.7994 12.0475 23.8024 11.5282 23.7875C10.6504 23.7623 9.93132 23.0283 9.91797 22.1496C9.90416 21.26 9.9046 20.3703 9.9193 19.4807C9.93415 18.5997 10.6525 17.8697 11.5304 17.8451C12.0376 17.8309 12.5452 17.8328 13.0529 17.8348C13.2654 17.8356 13.478 17.8364 13.6905 17.8361C13.713 17.836 13.7354 17.8392 13.7656 17.8435ZM26.1179 23.7953C25.8816 23.7938 25.6437 23.7923 25.4035 23.7923V17.8667C25.4208 17.8631 25.4377 17.8587 25.4543 17.8544C25.489 17.8453 25.5224 17.8365 25.5558 17.8365C25.7488 17.8365 25.9418 17.8356 26.1348 17.8348C26.6531 17.8325 27.1714 17.8302 27.6893 17.8445C28.5828 17.8693 29.2983 18.5986 29.3124 19.4962C29.3261 20.3767 29.326 21.2579 29.3135 22.1384C29.3008 23.0314 28.5812 23.765 27.687 23.7883C27.1669 23.8018 26.6464 23.7986 26.1179 23.7953Z" fill="#1242B0"/>
</svg>
