<svg width="10" height="10" viewBox="0 0 10 10" fill="none" xmlns="http://www.w3.org/2000/svg">
<path fill-rule="evenodd" clip-rule="evenodd" d="M0.530236 0.646447C0.725498 0.451184 1.04208 0.451184 1.23734 0.646447L4.88379 4.29289L8.53024 0.646447C8.7255 0.451184 9.04208 0.451184 9.23734 0.646447C9.4326 0.841709 9.4326 1.15829 9.23734 1.35355L5.5909 5L9.23734 8.64645C9.4326 8.84171 9.4326 9.15829 9.23734 9.35355C9.04208 9.54882 8.7255 9.54882 8.53024 9.35355L4.88379 5.70711L1.23734 9.35355C1.04208 9.54882 0.725498 9.54882 0.530236 9.35355C0.334974 9.15829 0.334974 8.84171 0.530236 8.64645L4.17668 5L0.530236 1.35355C0.334974 1.15829 0.334974 0.841709 0.530236 0.646447Z" fill="#1242B0"/>
</svg>
