<svg width="10" height="12" viewBox="0 0 10 12" fill="none" xmlns="http://www.w3.org/2000/svg">
<path fill-rule="evenodd" clip-rule="evenodd" d="M3 1.55556C3 1.02344 3.39947 0.5 4 0.5H6C6.60053 0.5 7 1.02344 7 1.55556V2.72222H8.49527C8.4981 2.7222 8.50092 2.7222 8.50376 2.72222H9C9.27614 2.72222 9.5 2.94608 9.5 3.22222C9.5 3.49836 9.27614 3.72222 9 3.72222H8.96889L8.56531 10.0001C8.51397 10.7988 7.90088 11.5 7.06888 11.5H2.93112C2.09912 11.5 1.48603 10.7988 1.43469 10.0001L1.03111 3.72222H1C0.723858 3.72222 0.5 3.49836 0.5 3.22222C0.5 2.94608 0.723858 2.72222 1 2.72222H1.49624C1.49908 2.7222 1.50191 2.7222 1.50473 2.72222H3V1.55556ZM2.03317 3.72222L2.43263 9.93598C2.45605 10.3002 2.71384 10.5 2.93112 10.5H7.06888C7.28616 10.5 7.54395 10.3002 7.56737 9.93598L7.96683 3.72222H2.03317ZM6 2.72222H4V1.55556C4 1.5272 4.00915 1.50883 4.0158 1.5H5.9842C5.99085 1.50883 6 1.5272 6 1.55556V2.72222ZM4 4.94444C4.27614 4.94444 4.5 5.1683 4.5 5.44444V8.77778C4.5 9.05392 4.27614 9.27778 4 9.27778C3.72386 9.27778 3.5 9.05392 3.5 8.77778V5.44444C3.5 5.1683 3.72386 4.94444 4 4.94444ZM6 4.94444C6.27614 4.94444 6.5 5.1683 6.5 5.44444V8.77778C6.5 9.05392 6.27614 9.27778 6 9.27778C5.72386 9.27778 5.5 9.05392 5.5 8.77778V5.44444C5.5 5.1683 5.72386 4.94444 6 4.94444Z" fill="#1242B0"/>
</svg>
