<svg width="99" height="49" viewBox="0 0 99 49" fill="none" xmlns="http://www.w3.org/2000/svg">
<path d="M12.6919 20.9825C12.6804 20.9588 12.6623 20.9388 12.6396 20.9248C12.6169 20.9108 12.5907 20.9033 12.5638 20.9033C12.537 20.9033 12.5108 20.9108 12.4881 20.9248C12.4654 20.9388 12.4473 20.9588 12.4358 20.9825L9.19262 28.1125C9.1804 28.1363 9.17466 28.1627 9.17596 28.1893C9.17727 28.2159 9.18557 28.2417 9.20007 28.2642C9.21457 28.2867 9.23477 28.3051 9.25871 28.3178C9.28265 28.3304 9.30952 28.3368 9.33671 28.3362H15.7933C15.8205 28.3368 15.8473 28.3304 15.8713 28.3178C15.8952 28.3051 15.9154 28.2867 15.9299 28.2642C15.9444 28.2417 15.9527 28.2159 15.954 28.1893C15.9553 28.1627 15.9496 28.1363 15.9374 28.1125L12.6919 20.9825Z" fill="#001432"/>
<path d="M57.9302 20.9822C57.9191 20.9584 57.9012 20.9382 57.8787 20.924C57.8562 20.9099 57.83 20.9023 57.8033 20.9023C57.7765 20.9023 57.7503 20.9099 57.7278 20.924C57.7053 20.9382 57.6874 20.9584 57.6763 20.9822L54.4309 28.1122C54.4187 28.136 54.4129 28.1624 54.4142 28.189C54.4155 28.2156 54.4239 28.2413 54.4384 28.2639C54.4528 28.2864 54.473 28.3048 54.497 28.3175C54.5209 28.3301 54.5478 28.3364 54.575 28.3359H61.0315C61.0587 28.3364 61.0856 28.3301 61.1095 28.3175C61.1335 28.3048 61.1537 28.2864 61.1682 28.2639C61.1827 28.2413 61.191 28.2156 61.1923 28.189C61.1936 28.1624 61.1879 28.136 61.1756 28.1122L57.9302 20.9822Z" fill="#001432"/>
<path d="M41.9891 20.9825C41.9776 20.9588 41.9595 20.9388 41.9368 20.9248C41.9141 20.9108 41.8879 20.9033 41.8611 20.9033C41.8342 20.9033 41.808 20.9108 41.7853 20.9248C41.7626 20.9388 41.7445 20.9588 41.733 20.9825L38.4875 28.1125C38.4753 28.1363 38.4696 28.1627 38.4709 28.1893C38.4722 28.2159 38.4805 28.2417 38.495 28.2642C38.5095 28.2867 38.5297 28.3051 38.5536 28.3178C38.5776 28.3304 38.6044 28.3368 38.6316 28.3362H45.0882C45.1154 28.3368 45.1423 28.3304 45.1662 28.3178C45.1901 28.3051 45.2103 28.2867 45.2248 28.2642C45.2393 28.2417 45.2476 28.2159 45.2489 28.1893C45.2502 28.1627 45.2445 28.1363 45.2323 28.1125L41.9891 20.9825Z" fill="#001432"/>
<path d="M98.415 13.1342C98.4095 13.0583 98.3757 12.987 98.3201 12.9338C98.2644 12.8806 98.1908 12.8492 98.1131 12.8456L68.9271 11.3153C68.868 11.3124 68.8105 11.2954 68.7596 11.2659C68.7088 11.2363 68.6661 11.1951 68.6352 11.1457C68.6043 11.0963 68.5862 11.0403 68.5825 10.9825C68.5787 10.9248 68.5895 10.867 68.6137 10.8142L73.2795 0.502882C73.3065 0.443208 73.3163 0.377446 73.3079 0.312707C73.2994 0.247968 73.2731 0.186717 73.2316 0.135576C73.1902 0.0844355 73.1352 0.0453523 73.0727 0.022553C73.0102 -0.000246318 72.9425 -0.0058929 72.8769 0.00622177L0.642682 13.1633C0.573176 13.1761 0.510021 13.2112 0.463212 13.2631C0.416402 13.3149 0.388611 13.3806 0.384237 13.4496C0.132653 17.0874 0.00457425 20.7564 0 24.4567C0 28.2645 0.13494 32.0387 0.404821 35.7793C0.410753 35.8553 0.444591 35.9266 0.500085 35.98C0.555579 36.0335 0.628978 36.0655 0.706721 36.0701L29.8904 37.5981C29.9495 37.6012 30.0069 37.6183 30.0578 37.6478C30.1086 37.6774 30.1514 37.7186 30.1824 37.7678C30.2135 37.8171 30.2318 37.873 30.2359 37.9307C30.2401 37.9884 30.2298 38.0463 30.2061 38.0993L25.5403 48.4106C25.5135 48.4701 25.5037 48.5356 25.5121 48.6001C25.5204 48.6646 25.5466 48.7256 25.5877 48.7767C25.6289 48.8277 25.6835 48.8669 25.7456 48.8899C25.8078 48.9129 25.8752 48.9189 25.9406 48.9073L98.1771 35.7502C98.2466 35.7374 98.3098 35.7023 98.3566 35.6504C98.4034 35.5985 98.4312 35.5329 98.4355 35.4638C98.6871 31.8261 98.8152 28.1571 98.8198 24.4567C98.8198 20.649 98.6848 16.8748 98.415 13.1342ZM18.7521 30.3294H6.38108C6.31993 30.3299 6.25963 30.3154 6.20577 30.287C6.15191 30.2587 6.10623 30.2175 6.07294 30.1674C6.03965 30.1172 6.01984 30.0596 6.01533 29.9999C6.01082 29.9403 6.02177 29.8805 6.04716 29.8261L11.0582 18.819C11.0828 18.7636 11.1234 18.7166 11.1751 18.6836C11.2267 18.6506 11.287 18.6331 11.3487 18.6333H13.7776C13.8396 18.6332 13.9002 18.6507 13.9521 18.6837C14.0041 18.7166 14.0452 18.7636 14.0704 18.819L19.0861 29.8216C19.1118 29.8762 19.1231 29.9364 19.1188 29.9964C19.1145 30.0565 19.0948 30.1145 19.0615 30.1651C19.0282 30.2157 18.9824 30.2573 18.9284 30.2861C18.8743 30.3148 18.8137 30.3297 18.7521 30.3294ZM32.3971 20.5192C32.3971 20.5726 32.3754 20.6239 32.3368 20.6616C32.2982 20.6994 32.2459 20.7206 32.1913 20.7206L25.1424 20.7295C25.1011 20.7295 25.0616 20.7456 25.0324 20.7741C25.0032 20.8026 24.9868 20.8413 24.9868 20.8817V23.2979C24.9868 23.3177 24.9909 23.3374 24.9987 23.3557C25.0066 23.3741 25.0181 23.3907 25.0325 23.4047C25.047 23.4186 25.0642 23.4296 25.083 23.437C25.1019 23.4444 25.122 23.4481 25.1424 23.4478H30.5926C30.6198 23.4478 30.6468 23.453 30.6719 23.4633C30.697 23.4736 30.7198 23.4886 30.7389 23.5075C30.7581 23.5265 30.7732 23.5489 30.7834 23.5736C30.7936 23.5983 30.7987 23.6247 30.7984 23.6513V25.3293C30.7987 25.3559 30.7936 25.3823 30.7834 25.407C30.7732 25.4317 30.7581 25.4541 30.7389 25.4731C30.7198 25.492 30.697 25.507 30.6719 25.5173C30.6468 25.5276 30.6198 25.5328 30.5926 25.5328H25.1424C25.1013 25.5334 25.0621 25.5496 25.033 25.578C25.004 25.6064 24.9874 25.6448 24.9868 25.685V28.0989C24.9865 28.1188 24.9903 28.1385 24.9978 28.157C25.0054 28.1754 25.0166 28.1922 25.0309 28.2064C25.0452 28.2205 25.0622 28.2318 25.0809 28.2394C25.0996 28.2471 25.1198 28.2511 25.1401 28.2511H32.1913C32.2185 28.2511 32.2455 28.2563 32.2706 28.2666C32.2957 28.2769 32.3185 28.2919 32.3376 28.3108C32.3568 28.3298 32.3719 28.3522 32.3821 28.3769C32.3923 28.4016 32.3974 28.428 32.3971 28.4546V30.1258C32.3971 30.1792 32.3754 30.2305 32.3368 30.2682C32.2982 30.306 32.2459 30.3272 32.1913 30.3272H23.0108C22.9562 30.3272 22.9038 30.306 22.8652 30.2682C22.8266 30.2305 22.8049 30.1792 22.8049 30.1258V18.8413C22.8046 18.8147 22.8097 18.7883 22.8199 18.7636C22.8301 18.7389 22.8452 18.7164 22.8644 18.6975C22.8835 18.6786 22.9063 18.6635 22.9315 18.6533C22.9566 18.643 22.9835 18.6377 23.0108 18.6377H32.1913C32.2185 18.6377 32.2455 18.643 32.2706 18.6533C32.2957 18.6635 32.3185 18.6786 32.3376 18.6975C32.3568 18.7164 32.3719 18.7389 32.3821 18.7636C32.3923 18.7883 32.3974 18.8147 32.3971 18.8413V20.5192ZM48.0479 30.3294H35.6791C35.618 30.3297 35.5578 30.315 35.504 30.2867C35.4501 30.2584 35.4044 30.2173 35.371 30.1673C35.3375 30.1172 35.3174 30.0598 35.3125 30.0002C35.3077 29.9406 35.3181 29.8807 35.3429 29.8261L40.354 18.819C40.3792 18.7636 40.4203 18.7166 40.4723 18.6837C40.5242 18.6507 40.5848 18.6332 40.6468 18.6333H43.0757C43.1374 18.6331 43.1977 18.6506 43.2494 18.6836C43.301 18.7166 43.3416 18.7636 43.3662 18.819L48.3841 29.8216C48.41 29.8764 48.4212 29.9368 48.4168 29.997C48.4124 30.0572 48.3925 30.1154 48.359 30.1661C48.3254 30.2168 48.2793 30.2583 48.2249 30.2869C48.1705 30.3154 48.1096 30.3301 48.0479 30.3294ZM63.9915 30.3294H51.6204C51.5595 30.3294 51.4995 30.3144 51.446 30.2859C51.3925 30.2574 51.3471 30.2163 51.3139 30.1663C51.2807 30.1163 51.2608 30.059 51.2561 29.9996C51.2513 29.9402 51.2617 29.8805 51.2865 29.8261L56.2976 18.819C56.3224 18.7638 56.3631 18.7169 56.4146 18.6839C56.4662 18.651 56.5264 18.6334 56.588 18.6333H59.0192C59.0809 18.6331 59.1413 18.6506 59.1929 18.6836C59.2445 18.7166 59.2851 18.7636 59.3097 18.819L64.3254 29.8216C64.3511 29.8762 64.3624 29.9364 64.3581 29.9964C64.3538 30.0565 64.3341 30.1145 64.3008 30.1651C64.2676 30.2157 64.2218 30.2573 64.1677 30.2861C64.1136 30.3148 64.053 30.3297 63.9915 30.3294ZM77.561 30.3294H75.793C75.7658 30.3297 75.7388 30.3247 75.7135 30.3148C75.6883 30.3048 75.6653 30.29 75.646 30.2713C75.6266 30.2525 75.6113 30.2302 75.6008 30.2057C75.5903 30.1811 75.5849 30.1547 75.5849 30.1281V25.6984C75.5852 25.6785 75.5815 25.6588 75.5739 25.6404C75.5663 25.6219 75.5551 25.6051 75.5408 25.591C75.5266 25.5768 75.5096 25.5656 75.4908 25.5579C75.4721 25.5502 75.452 25.5463 75.4317 25.5463H69.9929C69.9518 25.5468 69.9126 25.5631 69.8836 25.5915C69.8545 25.6199 69.8379 25.6582 69.8373 25.6984V30.1258C69.8373 30.1792 69.8157 30.2305 69.7771 30.2682C69.7385 30.306 69.6861 30.3272 69.6315 30.3272H67.8613C67.8067 30.3272 67.7543 30.306 67.7157 30.2682C67.6771 30.2305 67.6554 30.1792 67.6554 30.1258V18.8413C67.6554 18.7877 67.677 18.7363 67.7156 18.6982C67.7541 18.66 67.8065 18.6383 67.8613 18.6377H69.6269C69.6819 18.6383 69.7345 18.66 69.7734 18.698C69.8123 18.7361 69.8345 18.7875 69.8351 18.8413V23.2665C69.8351 23.3069 69.8514 23.3456 69.8806 23.3741C69.9098 23.4026 69.9493 23.4187 69.9906 23.4187H75.4294C75.4497 23.4187 75.4698 23.4147 75.4885 23.4071C75.5073 23.3994 75.5243 23.3881 75.5385 23.374C75.5528 23.3598 75.564 23.343 75.5716 23.3246C75.5792 23.3062 75.5829 23.2864 75.5826 23.2665V18.8413C75.5826 18.7873 75.6045 18.7356 75.6436 18.6974C75.6826 18.6592 75.7355 18.6377 75.7907 18.6377H77.5564C77.6112 18.6383 77.6635 18.66 77.7021 18.6982C77.7406 18.7363 77.7622 18.7877 77.7622 18.8413V30.1326C77.7622 30.1852 77.7412 30.2357 77.7036 30.2734C77.666 30.311 77.6148 30.3327 77.561 30.3339V30.3294ZM92.0385 20.5148C92.0385 20.5682 92.0168 20.6194 91.9782 20.6571C91.9396 20.6949 91.8872 20.7161 91.8326 20.7161H84.7791C84.7379 20.7161 84.6983 20.7321 84.6692 20.7607C84.64 20.7892 84.6236 20.8279 84.6236 20.8682V23.2844C84.6236 23.3043 84.6276 23.324 84.6355 23.3423C84.6433 23.3607 84.6548 23.3773 84.6693 23.3912C84.6838 23.4052 84.7009 23.4162 84.7198 23.4236C84.7386 23.431 84.7588 23.4346 84.7791 23.4343H90.2293C90.2566 23.4343 90.2835 23.4396 90.3086 23.4499C90.3338 23.4601 90.3566 23.4752 90.3757 23.4941C90.3949 23.513 90.41 23.5355 90.4202 23.5602C90.4304 23.5849 90.4355 23.6113 90.4352 23.6379V25.3158C90.4355 25.3425 90.4304 25.3689 90.4202 25.3936C90.41 25.4183 90.3949 25.4407 90.3757 25.4597C90.3566 25.4786 90.3338 25.4936 90.3086 25.5039C90.2835 25.5141 90.2566 25.5194 90.2293 25.5194H84.7814C84.7404 25.52 84.7011 25.5362 84.6721 25.5646C84.6431 25.593 84.6265 25.6314 84.6259 25.6716V28.0855C84.6256 28.1054 84.6293 28.1251 84.6369 28.1436C84.6445 28.162 84.6557 28.1788 84.67 28.1929C84.6842 28.2071 84.7012 28.2183 84.72 28.226C84.7387 28.2337 84.7588 28.2376 84.7791 28.2376H91.8303C91.8576 28.2376 91.8845 28.2429 91.9096 28.2532C91.9348 28.2634 91.9576 28.2785 91.9767 28.2974C91.9958 28.3163 92.011 28.3388 92.0212 28.3635C92.0314 28.3882 92.0365 28.4146 92.0362 28.4412V30.1258C92.0362 30.1792 92.0145 30.2305 91.9759 30.2682C91.9373 30.306 91.8849 30.3272 91.8303 30.3272H82.6498C82.5952 30.3272 82.5429 30.306 82.5043 30.2682C82.4657 30.2305 82.444 30.1792 82.444 30.1258V18.8413C82.4437 18.8147 82.4488 18.7883 82.459 18.7636C82.4692 18.7389 82.4843 18.7164 82.5035 18.6975C82.5226 18.6786 82.5454 18.6635 82.5705 18.6533C82.5956 18.643 82.6226 18.6377 82.6498 18.6377H91.8303C91.8576 18.6377 91.8845 18.643 91.9096 18.6533C91.9348 18.6635 91.9576 18.6786 91.9767 18.6975C91.9958 18.7164 92.011 18.7389 92.0212 18.7636C92.0314 18.7883 92.0365 18.8147 92.0362 18.8413L92.0385 20.5148Z" fill="#001432"/>
</svg>
